<?xml version="1.0" encoding="utf-8"?>
<!-- Generator: Adobe Illustrator 22.1.0, SVG Export Plug-In . SVG Version: 6.00 Build 0)  -->
<svg version="1.1" id="圖層_1" xmlns="http://www.w3.org/2000/svg" xmlns:xlink="http://www.w3.org/1999/xlink" x="0px" y="0px"
	 viewBox="0 0 123 45" style="enable-background:new 0 0 123 45;" xml:space="preserve">
<style type="text/css">
	.st0{fill:#17A6BF;}
	.st1{fill:#888888;}
</style>
<g>
	<path class="st0" d="M26.5,9.5v2.7H0V9.5h11.4V8.1H2.9V5.6h8.4V4.2H1.8V1.5h9.5V0H15v1.5h10v2.7H15v1.4h8.7v2.5H15v1.4H26.5z
		 M22.8,24.6c0,1.7-0.4,2.4-1.7,2.9c-1.2,0.4-3,0.4-5.4,0.4c-0.2-0.9-0.7-2-1.1-2.9c1.5,0.1,3.4,0.1,3.9,0.1c0.5,0,0.7-0.1,0.7-0.6
		v-1.2H7c-0.4,1.8-1.1,3.6-2.3,5c-0.5-0.7-2-2.1-2.7-2.6c1.7-2,1.9-4.8,1.9-7.1v-5.3h19V24.6z M19.2,21.1v-1.4H7.4
		c0,0.5-0.1,0.9-0.1,1.4H19.2z M7.4,16v1.3h11.8V16H7.4z"/>
	<path class="st0" d="M40.4,12.7c1.2,1.2,3.9,4.4,4.6,5.2l-2,3c-0.6-1-1.5-2.5-2.5-3.9V28h-3.6V17.3c-1.2,2.8-2.6,5.4-4.2,7.2
		c-0.3-1.1-1.2-2.5-1.8-3.4c2-2.2,4-5.6,5.1-8.9h-4.5V8.9h5.3V5c-1.5,0.2-2.9,0.5-4.3,0.6c-0.2-0.8-0.6-2-1-2.8
		c3.9-0.5,8.3-1.5,11-2.6l2.3,2.8C43.6,3.5,42,4,40.4,4.3v4.6h4.4v3.3h-4.4V12.7z M57.6,2.8v23.6h-3.7v-2.2h-4.8v2.4h-3.5V2.8H57.6z
		 M53.9,20.8V6.2h-4.8v14.6H53.9z"/>
	<path class="st0" d="M89.7,1.3v26.9h-3.5v-1.3H67.5v1.3h-3.4V1.3H89.7z M86.1,23.7V4.5h-3.7c1,0.5,2,1.2,2.5,1.7l-1.2,1.3h1.4V10
		h-5.4c0.2,1.7,0.3,3.2,0.6,4.6c0.6-1.2,1.1-2.4,1.4-3.8l2.7,0.5c-0.7,2.6-1.8,4.9-3.2,6.9c0.4,0.9,0.8,1.5,1.4,1.6
		c0.3,0.1,0.6-1.1,0.7-2.8c0.5,0.5,1.6,1.4,2.2,1.7c-0.5,3.7-2,4.8-4,3.9c-0.9-0.3-1.7-1-2.3-2c-1,1-2,1.8-3.1,2.6
		c-0.4-0.5-1.4-1.7-2-2.2c0.3-0.2,0.7-0.4,1-0.6c-2.4,0.4-4.7,0.7-6.7,1l-0.3-2.6c2.2-0.2,5.3-0.6,8.4-1l0.1,1.5
		c0.5-0.5,1-1,1.5-1.5c-0.6-2.2-1-4.9-1.3-7.9h-8.3V7.5h8.1c-0.1-0.8-0.1-1.7-0.2-2.6h2.9c0,0.9,0.1,1.7,0.1,2.6h3.2
		c-0.6-0.5-1.5-1.2-2.3-1.6L82,4.5H67.5v19.2H86.1z M76,17h-6.7v-5.7H76V17z M73.6,13.2h-2v1.9h2V13.2z"/>
	<path class="st0" d="M108.7,13.1c-0.9,1-2,1.9-3.1,2.6c-0.4-0.6-1.1-1.6-1.7-2.1c0.3,1.1,0.4,2,0.4,2.9c0,1.9-0.4,3.2-1.3,3.9
		c-0.4,0.4-1,0.6-1.6,0.7c-0.5,0.1-1.2,0.1-1.8,0c0-0.8-0.3-2.1-0.8-2.9c0.5,0.1,0.9,0.1,1.2,0c0.3,0,0.6-0.1,0.8-0.2
		c0.3-0.3,0.5-1,0.5-1.8c0-1.4-0.3-3.4-1.9-5.6c0.6-1.8,1.1-4.3,1.6-6.2h-2.2V28h-3.1V1.2h6.3l0.5-0.1l2.2,1.2
		c-0.3,1.2-0.7,2.6-1.1,3.9c1.7-1.6,2.9-3.8,3.7-6.2l2.6,0.6c-0.2,0.5-0.4,1-0.6,1.5h2.3l0.5-0.1l1.8,0.7l-0.1,0.5l1.5-0.4l0-1.4
		h4.7l0.6-0.1l1.9,1.1c-0.8,2.5-2.2,5.1-3.6,6.9c1.1,1.6,2.6,2.9,4.2,3.8c-0.7,0.6-1.6,1.7-2,2.5c-1.4-0.8-2.5-1.9-3.5-3.2v1.8h-8.8
		V13.1z M107.7,10c0.4-0.5,0.7-1,1.1-1.5c-0.6-0.6-1.4-1.2-2.1-1.8c-0.6,0.8-1.2,1.5-1.8,2.1c-0.4-0.4-1.1-1-1.7-1.4
		c-0.3,1-0.6,2-0.9,2.9c0.8,1.2,1.3,2.3,1.6,3.3c1.2-0.7,2.2-1.6,3.2-2.8c-1.2,0.2-2.2,0.4-3.3,0.6l-0.3-2.2
		c1.2-0.1,2.5-0.2,4.2-0.4L107.7,10z M110.1,21.4c-1.1,1.9-2.8,4.1-4.1,5.5c-0.7-0.6-2.1-1.4-2.9-1.8c1.3-1.2,2.8-3.1,3.7-4.7
		L110.1,21.4z M114.9,19.3V28h-3.4v-8.6h-5.6v-2.9h14.5v2.9H114.9z M108.1,4.5l-0.2,0.4c0.6,0.5,1.3,1,1.9,1.5
		c0.3-0.6,0.5-1.2,0.7-1.9H108.1z M116.7,11.6c-1.4-2-2.6-4.5-3.4-7.1c-0.8,2.8-1.9,5.2-3.4,7.1H116.7z M116,3.9
		c0.3,1,0.7,2,1.2,2.9c0.5-0.9,1.1-1.9,1.4-2.9H116z M118.8,20c1.3,1.5,3.2,3.6,4.1,4.9l-2.8,1.8c-0.8-1.3-2.6-3.5-3.9-5.1L118.8,20
		z"/>
</g>
<g>
	<path class="st1" d="M7.1,39.5l1.1,0.3c-0.2,0.9-0.7,1.6-1.3,2.1s-1.4,0.7-2.3,0.7c-0.9,0-1.7-0.2-2.3-0.6s-1-0.9-1.3-1.6
		c-0.3-0.7-0.5-1.5-0.5-2.3c0-0.9,0.2-1.7,0.5-2.3s0.8-1.2,1.5-1.5s1.3-0.5,2.1-0.5c0.9,0,1.6,0.2,2.2,0.7c0.6,0.4,1,1.1,1.2,1.8
		l-1.1,0.3c-0.2-0.6-0.5-1.1-0.9-1.4c-0.4-0.3-0.9-0.4-1.4-0.4c-0.7,0-1.2,0.2-1.7,0.5S2.2,35.9,2,36.5c-0.2,0.5-0.3,1.1-0.3,1.7
		c0,0.7,0.1,1.4,0.3,1.9c0.2,0.5,0.5,1,1,1.2s0.9,0.4,1.5,0.4c0.6,0,1.2-0.2,1.6-0.6C6.6,40.7,6.9,40.2,7.1,39.5z"/>
	<path class="st1" d="M10.2,35.1v-1.2h1.1v1.2H10.2z M10.2,42.5v-6.2h1.1v6.2H10.2z"/>
	<path class="st1" d="M13.6,42.5v-6.2h0.9v0.9c0.5-0.7,1.1-1,2-1c0.4,0,0.7,0.1,1,0.2c0.3,0.1,0.6,0.3,0.7,0.5
		c0.2,0.2,0.3,0.5,0.3,0.8c0,0.2,0.1,0.5,0.1,1v3.8h-1.1v-3.8c0-0.4,0-0.8-0.1-1c-0.1-0.2-0.2-0.4-0.4-0.5S16.6,37,16.3,37
		c-0.4,0-0.8,0.1-1.2,0.4c-0.3,0.3-0.5,0.8-0.5,1.6v3.4H13.6z"/>
	<path class="st1" d="M20.8,43l1,0.2c0,0.3,0.2,0.5,0.4,0.7c0.3,0.2,0.6,0.3,1.1,0.3c0.5,0,0.9-0.1,1.1-0.3c0.3-0.2,0.4-0.5,0.5-0.8
		c0.1-0.2,0.1-0.7,0.1-1.4c-0.5,0.5-1,0.8-1.7,0.8c-0.9,0-1.5-0.3-2-0.9c-0.5-0.6-0.7-1.4-0.7-2.2c0-0.6,0.1-1.1,0.3-1.6
		c0.2-0.5,0.5-0.9,0.9-1.2c0.4-0.3,0.9-0.4,1.4-0.4c0.7,0,1.3,0.3,1.8,0.9v-0.8h1v5.4c0,1-0.1,1.7-0.3,2.1s-0.5,0.7-0.9,1
		c-0.4,0.2-1,0.4-1.6,0.4c-0.7,0-1.3-0.2-1.8-0.5S20.8,43.7,20.8,43z M21.6,39.2c0,0.8,0.2,1.4,0.5,1.8c0.3,0.4,0.7,0.6,1.2,0.6
		c0.5,0,0.9-0.2,1.2-0.6c0.3-0.4,0.5-1,0.5-1.8c0-0.8-0.2-1.3-0.5-1.7S23.8,37,23.3,37c-0.5,0-0.9,0.2-1.2,0.6
		C21.8,37.9,21.6,38.5,21.6,39.2z"/>
	<path class="st1" d="M27.9,39.9v-1.1h3.2v1.1H27.9z"/>
	<path class="st1" d="M33.2,42.5v-8.6h1.1v3.5h4.5v-3.5H40v8.6h-1.1v-4.1h-4.5v4.1H33.2z"/>
	<path class="st1" d="M46.7,40.5l1.1,0.1c-0.2,0.6-0.5,1.1-1,1.5s-1.1,0.5-1.8,0.5c-0.9,0-1.6-0.3-2.2-0.8c-0.5-0.6-0.8-1.3-0.8-2.4
		c0-1,0.3-1.9,0.8-2.4c0.5-0.6,1.2-0.9,2.1-0.9c0.8,0,1.5,0.3,2,0.9s0.8,1.4,0.8,2.4c0,0.1,0,0.2,0,0.3h-4.6c0,0.7,0.2,1.2,0.6,1.6
		s0.8,0.5,1.3,0.5c0.4,0,0.7-0.1,1-0.3C46.4,41.2,46.6,40.9,46.7,40.5z M43.3,38.8h3.5c0-0.5-0.2-0.9-0.4-1.2C46,37.2,45.6,37,45,37
		c-0.5,0-0.9,0.2-1.2,0.5C43.5,37.8,43.3,38.2,43.3,38.8z"/>
	<path class="st1" d="M60.2,39.5l1.1,0.3c-0.2,0.9-0.7,1.6-1.3,2.1s-1.4,0.7-2.3,0.7c-0.9,0-1.7-0.2-2.3-0.6s-1-0.9-1.3-1.6
		c-0.3-0.7-0.5-1.5-0.5-2.3c0-0.9,0.2-1.7,0.5-2.3s0.8-1.2,1.5-1.5c0.6-0.3,1.3-0.5,2.1-0.5c0.9,0,1.6,0.2,2.2,0.7
		c0.6,0.4,1,1.1,1.2,1.8l-1.1,0.3c-0.2-0.6-0.5-1.1-0.9-1.4s-0.9-0.4-1.4-0.4c-0.7,0-1.2,0.2-1.7,0.5c-0.4,0.3-0.8,0.7-0.9,1.3
		c-0.2,0.5-0.3,1.1-0.3,1.7c0,0.7,0.1,1.4,0.3,1.9c0.2,0.5,0.5,1,1,1.2s0.9,0.4,1.5,0.4c0.6,0,1.2-0.2,1.6-0.6
		C59.7,40.7,60,40.2,60.2,39.5z"/>
	<path class="st1" d="M62.9,39.4c0-1.2,0.3-2,1-2.6c0.5-0.5,1.2-0.7,2-0.7c0.9,0,1.6,0.3,2.1,0.8s0.8,1.3,0.8,2.3
		c0,0.8-0.1,1.4-0.4,1.9c-0.2,0.5-0.6,0.8-1,1.1c-0.5,0.3-1,0.4-1.5,0.4c-0.9,0-1.6-0.3-2.1-0.8S62.9,40.4,62.9,39.4z M64,39.4
		c0,0.8,0.2,1.4,0.5,1.8c0.3,0.4,0.8,0.6,1.3,0.6c0.5,0,1-0.2,1.3-0.6c0.3-0.4,0.5-1,0.5-1.8c0-0.8-0.2-1.4-0.5-1.7
		c-0.3-0.4-0.8-0.6-1.3-0.6c-0.5,0-1,0.2-1.3,0.6C64.2,38,64,38.6,64,39.4z"/>
	<path class="st1" d="M70.7,42.5v-6.2h0.9v0.9c0.2-0.4,0.5-0.7,0.7-0.9c0.2-0.1,0.4-0.2,0.7-0.2c0.4,0,0.7,0.1,1.1,0.3l-0.4,1
		c-0.3-0.2-0.5-0.2-0.8-0.2c-0.2,0-0.4,0.1-0.6,0.2c-0.2,0.1-0.3,0.3-0.4,0.6c-0.1,0.4-0.2,0.8-0.2,1.2v3.3H70.7z"/>
	<path class="st1" d="M75.4,44.9v-8.6h1v0.8c0.2-0.3,0.5-0.6,0.8-0.7c0.3-0.2,0.6-0.2,1-0.2c0.5,0,1,0.1,1.4,0.4
		c0.4,0.3,0.7,0.7,0.9,1.2c0.2,0.5,0.3,1,0.3,1.6c0,0.6-0.1,1.2-0.3,1.7c-0.2,0.5-0.6,0.9-1,1.2c-0.4,0.3-0.9,0.4-1.4,0.4
		c-0.4,0-0.7-0.1-0.9-0.2c-0.3-0.1-0.5-0.3-0.7-0.6v3H75.4z M76.4,39.4c0,0.8,0.2,1.4,0.5,1.8s0.7,0.6,1.2,0.6
		c0.5,0,0.9-0.2,1.2-0.6c0.3-0.4,0.5-1,0.5-1.8c0-0.8-0.2-1.4-0.5-1.8c-0.3-0.4-0.7-0.6-1.2-0.6c-0.4,0-0.8,0.2-1.2,0.6
		C76.6,38,76.4,38.6,76.4,39.4z"/>
	<path class="st1" d="M82.4,39.4c0-1.2,0.3-2,1-2.6c0.5-0.5,1.2-0.7,2-0.7c0.9,0,1.6,0.3,2.1,0.8s0.8,1.3,0.8,2.3
		c0,0.8-0.1,1.4-0.4,1.9s-0.6,0.8-1,1.1c-0.5,0.3-1,0.4-1.5,0.4c-0.9,0-1.6-0.3-2.1-0.8S82.4,40.4,82.4,39.4z M83.5,39.4
		c0,0.8,0.2,1.4,0.5,1.8c0.3,0.4,0.8,0.6,1.3,0.6c0.5,0,1-0.2,1.3-0.6c0.3-0.4,0.5-1,0.5-1.8c0-0.8-0.2-1.4-0.5-1.7
		c-0.3-0.4-0.8-0.6-1.3-0.6c-0.5,0-1,0.2-1.3,0.6C83.7,38,83.5,38.6,83.5,39.4z"/>
	<path class="st1" d="M90.2,42.5v-6.2h0.9v0.9c0.2-0.4,0.5-0.7,0.7-0.9c0.2-0.1,0.4-0.2,0.7-0.2c0.4,0,0.7,0.1,1.1,0.3l-0.4,1
		c-0.3-0.2-0.5-0.2-0.8-0.2c-0.2,0-0.4,0.1-0.6,0.2c-0.2,0.1-0.3,0.3-0.4,0.6c-0.1,0.4-0.2,0.8-0.2,1.2v3.3H90.2z"/>
	<path class="st1" d="M99,41.7c-0.4,0.3-0.8,0.6-1.1,0.7c-0.4,0.1-0.7,0.2-1.2,0.2c-0.7,0-1.2-0.2-1.6-0.5c-0.4-0.3-0.6-0.8-0.6-1.3
		c0-0.3,0.1-0.6,0.2-0.8c0.1-0.3,0.3-0.5,0.5-0.6c0.2-0.2,0.5-0.3,0.8-0.3c0.2-0.1,0.5-0.1,0.9-0.2c0.9-0.1,1.5-0.2,1.9-0.4
		c0-0.1,0-0.2,0-0.3c0-0.4-0.1-0.7-0.3-0.9C98.4,37.1,98,37,97.4,37c-0.5,0-0.9,0.1-1.1,0.3c-0.2,0.2-0.4,0.5-0.5,0.9l-1-0.1
		c0.1-0.4,0.2-0.8,0.5-1.1c0.2-0.3,0.5-0.5,0.9-0.6c0.4-0.1,0.9-0.2,1.4-0.2c0.5,0,1,0.1,1.3,0.2c0.3,0.1,0.6,0.3,0.7,0.5
		c0.2,0.2,0.3,0.4,0.3,0.7c0,0.2,0.1,0.5,0.1,1v1.4c0,1,0,1.6,0.1,1.9c0,0.3,0.1,0.5,0.3,0.7h-1.1C99.1,42.3,99,42,99,41.7z
		 M98.9,39.3c-0.4,0.2-1,0.3-1.7,0.4c-0.4,0.1-0.7,0.1-0.9,0.2c-0.2,0.1-0.3,0.2-0.4,0.3c-0.1,0.2-0.1,0.3-0.1,0.5
		c0,0.3,0.1,0.5,0.3,0.7s0.5,0.3,0.9,0.3c0.4,0,0.8-0.1,1.1-0.3c0.3-0.2,0.5-0.4,0.7-0.7c0.1-0.2,0.2-0.6,0.2-1.1V39.3z"/>
	<path class="st1" d="M104.6,41.5l0.2,0.9c-0.3,0.1-0.6,0.1-0.8,0.1c-0.4,0-0.7-0.1-0.9-0.2c-0.2-0.1-0.4-0.3-0.4-0.5
		c-0.1-0.2-0.1-0.6-0.1-1.2v-3.6h-0.8v-0.8h0.8v-1.5l1-0.6v2.2h1.1v0.8h-1.1v3.6c0,0.3,0,0.5,0.1,0.6s0.1,0.2,0.2,0.2
		c0.1,0.1,0.2,0.1,0.4,0.1C104.3,41.6,104.5,41.6,104.6,41.5z"/>
	<path class="st1" d="M106.4,35.1v-1.2h1.1v1.2H106.4z M106.4,42.5v-6.2h1.1v6.2H106.4z"/>
	<path class="st1" d="M109.4,39.4c0-1.2,0.3-2,1-2.6c0.5-0.5,1.2-0.7,2-0.7c0.9,0,1.6,0.3,2.1,0.8s0.8,1.3,0.8,2.3
		c0,0.8-0.1,1.4-0.4,1.9c-0.2,0.5-0.6,0.8-1,1.1c-0.5,0.3-1,0.4-1.5,0.4c-0.9,0-1.6-0.3-2.1-0.8C109.7,41.2,109.4,40.4,109.4,39.4z
		 M110.5,39.4c0,0.8,0.2,1.4,0.5,1.8c0.3,0.4,0.8,0.6,1.3,0.6c0.5,0,1-0.2,1.3-0.6c0.3-0.4,0.5-1,0.5-1.8c0-0.8-0.2-1.4-0.5-1.7
		c-0.3-0.4-0.8-0.6-1.3-0.6c-0.5,0-1,0.2-1.3,0.6C110.6,38,110.5,38.6,110.5,39.4z"/>
	<path class="st1" d="M117.2,42.5v-6.2h0.9v0.9c0.5-0.7,1.1-1,2-1c0.4,0,0.7,0.1,1,0.2c0.3,0.1,0.6,0.3,0.7,0.5s0.3,0.5,0.3,0.8
		c0,0.2,0.1,0.5,0.1,1v3.8h-1.1v-3.8c0-0.4,0-0.8-0.1-1c-0.1-0.2-0.2-0.4-0.4-0.5c-0.2-0.1-0.5-0.2-0.7-0.2c-0.4,0-0.8,0.1-1.2,0.4
		c-0.3,0.3-0.5,0.8-0.5,1.6v3.4H117.2z"/>
</g>
</svg>
